# xmcd
#
# Track frame offsets:
#	150
#	39746
#	65795
#	85923
#	109319
#	138458
#	160953
#	180890
#	214902
#	235322
#	247288
#	260942
#	275137
#	300943
#	321425
#
# Disc length: 4434 seconds
# Revision: 0
# Processed by: cddbd v1.5.2PL0 Copyright (c) Steve Scherf et al.
# Submitted via: dBpowerAMP V12.0
#
DISCID=ec11500f
DTITLE=Bob Dylan - House Of The Risin' Sun - Disc 2
DYEAR=2013
DGENRE=Folk
TTITLE0=Lonesome Whistle Blues
TTITLE1=Fixin' To Die
TTITLE2=Smokestack Lightning
TTITLE3=Hard Traveling
TTITLE4=The Death Of Emmett Till
TTITLE5=Standing On The Highway
TTITLE6=Roll On John
TTITLE7=Stealin'
TTITLE8=Long Time Man
TTITLE9=Baby, Please Don't Go
TTITLE10=Hard Times In New York Town
TTITLE11=Sally Gal
TTITLE12=The Girl I Left Behind
TTITLE13=Ballad Of Donald White
TTITLE14=Blowin' In The Wind
EXTD=
EXTT0=
EXTT1=
EXTT2=
EXTT3=
EXTT4=
EXTT5=
EXTT6=
EXTT7=
EXTT8=
EXTT9=
EXTT10=
EXTT11=
EXTT12=
EXTT13=
EXTT14=
PLAYORDER=
